# AST/ASF file generated using VICON BodyLanguage
# -----------------------------------------------
:version 1.10
:name VICON
:units
  mass 1.0
  length 0.45
  angle deg
:documentation
   .ast/.asf automatically generated from VICON data using
   VICON BodyBuilder and BodyLanguage model FoxedUp or BRILLIANT.MOD
:root
   order TX TY TZ RX RY RZ
   axis XYZ
   position 0 0 0  
   orientation 0 0 0 
:bonedata
  begin
     id 1 
     name lhipjoint
     direction 0.682418 -0.694059 0.22932 
     length 2.25561 
     axis 0 0 0  XYZ
  end
  begin
     id 2 
     name lfemur
     direction 0.34202 -0.939693 0  
     length 6.96448  
     axis 0 0 20  XYZ
    dof rx ry rz
    limits (-160.0 20.0)
           (-70.0 70.0)
           (-60.0 70.0)
  end
  begin
     id 3 
     name ltibia
     direction 0.34202 -0.939693 0   
     length 6.88553   
     axis 0 0 20   XYZ
    dof rx
    limits (-10.0 170.0)
  end
  begin
     id 4 
     name lfoot
     direction 0.0723587 -0.198804 0.977364   
     length 1.88518   
     axis -90 7.62852e-016 20   XYZ
    dof rx rz
    limits (-45.0 90.0)
           (-70.0 20.0)
  end
  begin
     id 5 
     name ltoes
     direction 1.53558e-011 -4.21962e-011 1   
     length 0.952124   
     axis -90 7.62852e-016 20   XYZ
    dof rx
    limits (-90.0 20.0)
  end
  begin
     id 6 
     name rhipjoint
     direction -0.657603 -0.71533 0.236348   
     length 2.18854  
     axis 0 0 0  XYZ 
  end
  begin
     id 7 
     name rfemur
     direction -0.34202 -0.939693 0   
     length 6.86686   
     axis 0 0 -20   XYZ
    dof rx ry rz
    limits (-160.0 20.0)
           (-70.0 70.0)
           (-70.0 60.0)
  end
  begin
     id 8 
     name rtibia
     direction -0.34202 -0.939693 0   
     length 6.59503   
     axis 0 0 -20   XYZ
    dof rx
    limits (-10.0 170.0)
 end
 begin
     id 9 
     name rfoot
     direction -0.101977 -0.280179 0.954516   
     length 1.93723  
     axis -90 -7.62852e-016 -20   XYZ
    dof rx rz
    limits (-45.0 90.0)
           (-20.0 70.0)
  end
  begin
     id 10 
     name rtoes
     direction -1.53564e-011 -4.21897e-011 1   
     length 0.970315   
     axis -90 -7.62852e-016 -20   XYZ
    dof rx
    limits (-90.0 20.0)
  end
  begin
     id 11 
     name lowerback
     direction -0.0339559 0.999421 -0.00235966   
     length 1.88543   
     axis 0 0 0   XYZ
    dof rx ry rz
    limits (-20.0 45.0)
           (-30.0 30.0)
           (-30.0 30.0)
  end
  begin
     id 12 
     name upperback
     direction 0.00401003 0.999739 0.0224689   
     length 1.8856   
     axis 0 0 0   XYZ
    dof rx ry rz
    limits (-20.0 45.0)
           (-30.0 30.0)
           (-30.0 30.0)
  end
  begin
     id 13 
     name thorax
     direction 0.0198619 0.999546 0.0226536   
     length 1.88352   
     axis 0 0 0   XYZ
    dof rx ry rz
    limits (-20.0 45.0)
           (-30.0 30.0)
           (-30.0 30.0)
  end
  begin
     id 14 
     name lowerneck
     direction -0.0461848 0.998632 0.0245198   
     length 1.34895   
     axis 0 0 0   XYZ
    dof rx ry rz
    limits (-20.0 45.0)
           (-30.0 30.0)
           (-30.0 30.0)
  end
  begin
     id 15 
     name upperneck
     direction -0.0180627 0.994724 -0.100984   
     length 1.35214   
     axis 0 0 0   XYZ
    dof rx ry rz
    limits (-20.0 45.0)
           (-30.0 30.0)
           (-30.0 30.0)
  end
  begin
     id 16
     name head
     direction -0.00374772 0.999293 -0.037403  
     length 1.3568  
     axis 0 0 0   XYZ
    dof rx ry rz
    limits (-20.0 45.0)
           (-30.0 30.0)
           (-30.0 30.0)
  end
  begin
     id 17 
     name lclavicle
     direction 0.971773 0.191119 0.138311  
     length 2.84954  
     axis 0 0 0   XYZ
    dof ry rz
    limits (-20.0 10.0)
           (0.0 20.0)
  end
  begin
     id 18 
     name lhumerus
     direction 1 -4.4897e-011 -2.43761e-027   
     length 4.40919   
     axis 180 -30 -90   XYZ
    dof rx ry rz
    limits (-60.0 90.0)
           (-90.0 90.0)
           (-90.0 90.0)
  end
  begin
     id 19
     name lradius
     direction 1 -4.4896e-011 -9.1621e-027   
     length 3.03857   
     axis 180 -30 -90   XYZ
    dof rx
    limits (-10.0 170.0)
  end
  begin
     id 20
     name lwrist
     direction 1 -4.4896e-011 -1.41363e-026   
     length 1.51928   
     axis 1.07133e-014 90 90   XYZ
    dof ry
    limits (-180.0 0.0)
 end
  begin
     id 21 
     name lhand
     direction 1 -4.48978e-011 -2.82725e-026   
     length 0.523208   
     axis 1.80403e-014 90 90   XYZ
    dof rx rz
    limits (-90.0 90.0)
           (-45.0 45.0)
  end
  begin
     id 22 
     name lfingers
     direction 1 -4.48977e-011 -5.6545e-026   
     length 0.421824   
     axis 3.60806e-014 90 90   XYZ
    dof rx
    limits (0.0 90.0)
  end
  begin
     id 23
     name lthumb
     direction 0.707107 -6.34962e-011 0.707107   
     length 0.605657   
     axis -90 45 2.85299e-015   XYZ
    dof rx rz
    limits (-45.0 45.0)
           (-45.0 45.0)
  end
  begin
     id 24 
     name rclavicle
     direction -0.957247 0.24311 0.156766   
     length 3.12406  
     axis 0 0 0   XYZ 
    dof ry rz
    limits (-10.0 20.0)
           (-20.0 0.0)
  end
  begin
     id 25 
     name rhumerus
     direction -1 -4.48964e-011 -1.70632e-027  
     length 4.61969   
     axis 180 30 90   XYZ
    dof rx ry rz
    limits (-90.0 60.0)
           (-90.0 90.0)
           (-90.0 90.0)
  end
  begin
     id 26 
     name rradius
     direction -1 -4.48966e-011 -6.60395e-027   
     length 3.09382   
     axis 180 30 90   XYZ
    dof rx
    limits (-10.0 170.0)
  end
  begin
     id 27 
     name rwrist
     direction -1 -4.48963e-011 -1.41363e-026   
     length 1.54691   
     axis 1.07133e-014 -90 -90   XYZ
    dof ry
    limits (-180.0 0.0)
  end
  begin
     id 28
     name rhand
     direction -1 -4.49013e-011 -2.82725e-026   
     length 0.500896   
     axis 1.80403e-014 -90 -90   XYZ
    dof rx rz
    limits (-90.0 90.0)
           (-45.0 45.0)
  end
  begin
     id 29
     name rfingers
     direction -1 -4.48902e-011 -5.6545e-026   
     length 0.403835   
     axis 3.60806e-014 -90 -90   XYZ
    dof rx
    limits (0.0 90.0)
  end
  begin
     id 30
     name rthumb
     direction -0.707107 -6.34953e-011 0.707107   
     length 0.579829   
     axis -90 -45 -2.85299e-015   XYZ
    dof rx rz
    limits (-45.0 45.0)
           (-45.0 45.0)
  end
:hierarchy
  begin
    root lhipjoint rhipjoint lowerback
    lhipjoint lfemur
    lfemur ltibia
    ltibia lfoot
    lfoot ltoes
    rhipjoint rfemur
    rfemur rtibia
    rtibia rfoot
    rfoot rtoes
    lowerback upperback
    upperback thorax
    thorax lowerneck lclavicle rclavicle
    lowerneck upperneck
    upperneck head
    lclavicle lhumerus
    lhumerus lradius
    lradius lwrist
    lwrist lhand lthumb
    lhand lfingers
    rclavicle rhumerus
    rhumerus rradius
    rradius rwrist
    rwrist rhand rthumb
    rhand rfingers
  end

#!OML:ASF E:\madness\Project 1\Capture day 1\Session 1\Female1.ASF
:FULLY-SPECIFIED
:DEGREES
896
root 7.39343 16.4492 -1.79272 195.032 -75.3774 -188.449
lowerback -7.29463 -0.16614 -4.20441
upperback -5.15733 -0.18324 0.205958
thorax -1.24104 -0.0656186 2.56229
lowerneck 4.84919 4.64768 2.73582
upperneck 0.337754 6.22036 -6.57455
head -0.41195 3.15788 -2.65037
rclavicle -2.28727e-014 -6.95746e-015
rhumerus -48.5387 7.30309 -96.3751
rradius 102.413
rwrist -50.0666
rhand -16.2988 -58.7245
rfingers 7.12502
rthumb 9.91185 -88.4712
lclavicle -2.28727e-014 -6.95746e-015
lhumerus -52.5607 -0.206196 92.5782
lradius 128.574
lwrist 51.2572
lhand -46.3938 32.1718
lfingers 7.12502
lthumb -19.1244 61.2515
rfemur -0.265236 16.6852 20.7257
rtibia 1.19271e-014
rfoot -6.87921 -15.6357
rtoes 20.4975
lfemur -7.49609 -8.99581 -14.9722
ltibia 18.3018
lfoot -7.71705 31.2886
ltoes 17.9811
897
root 7.38736 16.4484 -1.79749 194.942 -75.3435 -188.358
lowerback -7.39711 -0.135401 -4.21813
upperback -5.09227 -0.132732 0.217686
thorax -1.12062 -0.0423154 2.58497
lowerneck 4.49311 4.77197 2.73082
upperneck 0.48774 6.39092 -6.58045
head -0.294364 3.23567 -2.63745
rclavicle 8.19987e-016 -2.68359e-015
rhumerus -48.3837 7.28209 -96.3175
rradius 102.05
rwrist -49.5852
rhand -16.868 -58.9233
rfingers 7.12502
rthumb 9.36272 -88.6954
lclavicle 8.19987e-016 -2.68359e-015
lhumerus -52.5152 -0.268814 92.5645
lradius 128.092
lwrist 50.7988
lhand -46.2008 33.9163
lfingers 7.12502
lthumb -18.9388 63.0143
rfemur -0.21167 16.7206 20.7353
rtibia 1.59028e-015
rfoot -7.0915 -15.5755
rtoes 21.8707
lfemur -7.34382 -8.86771 -14.9721
ltibia 18.1564
lfoot -7.88589 31.2346
ltoes 18.7299
898
root 7.38308 16.4477 -1.79816 194.812 -75.3139 -188.217
lowerback -7.46065 -0.0882747 -4.15084
upperback -5.08228 -0.0709491 0.197348
thorax -1.07929 -0.0144434 2.52999
lowerneck 4.5134 4.91657 2.91717
upperneck 0.370002 6.5888 -6.71815
head -0.314144 3.33821 -2.72106
rclavicle -1.5207e-014 1.53064e-014
rhumerus -48.5113 7.15784 -96.3055
rradius 101.782
rwrist -48.973
rhand -17.3574 -59.0326
rfingers 7.12502
rthumb 8.89046 -88.8253
lclavicle -1.5207e-014 1.53064e-014
lhumerus -52.4756 -0.441714 92.4777
lradius 127.576
lwrist 50.4265
lhand -45.8263 35.608
lfingers 7.12502
lthumb -18.5786 64.7408
rfemur -0.168708 16.7543 20.7401
rtibia 3.18055e-015
rfoot -7.32173 -15.5485
rtoes 23.3695
lfemur -7.22443 -8.81828 -14.9583
ltibia 18.0081
lfoot -7.81204 31.2812
ltoes 18.7597
899
root 7.37972 16.4474 -1.79648 195.018 -75.3974 -188.43
lowerback -7.4738 -0.103603 -4.1378
upperback -5.10076 -0.0930071 0.183392
thorax -1.08953 -0.0259967 2.50684
lowerneck 4.58349 5.11832 3.06812
upperneck 0.324335 6.86525 -6.78918
head -0.318242 3.47911 -2.77691
rclavicle -3.03147e-015 -2.08724e-015
rhumerus -48.5213 7.16001 -96.2389
rradius 101.406
rwrist -48.1983
rhand -17.1474 -58.9639
rfingers 7.12502
rthumb 9.09314 -88.7479
lclavicle -3.03147e-015 -2.08724e-015
lhumerus -52.502 -0.47064 92.3992
lradius 126.973
lwrist 50.3979
lhand -45.9355 32.5063
lfingers 7.12502
lthumb -18.6837 61.629
rfemur -0.128189 16.6572 20.7075
rtibia 1.35174e-014
rfoot -7.37278 -15.5538
rtoes 23.3092
lfemur -7.21005 -8.94612 -14.9857
ltibia 17.9045
lfoot -7.56454 31.3315
ltoes 18.2649
900
root 7.37424 16.4481 -1.79941 195.463 -75.4745 -188.885
lowerback -7.57853 -0.111436 -4.2155
upperback -5.05039 -0.0914125 0.141898
thorax -0.979982 -0.026442 2.50758
lowerneck 4.36586 5.23009 3.30082
upperneck 0.443807 7.02935 -6.94354
head -0.220052 3.55768 -2.86043
rclavicle 1.72446e-014 8.34896e-015
rhumerus -48.3326 7.11167 -96.1036
rradius 100.899
rwrist -47.4563
rhand -16.4899 -58.5171
rfingers 7.12502
rthumb 9.72749 -88.2725
lclavicle 1.72446e-014 8.34896e-015
lhumerus -52.4479 -0.495839 92.3213
lradius 126.419
lwrist 50.7213
lhand -45.7405 35.7243
lfingers 7.12502
lthumb -18.4961 64.8649
rfemur -0.101405 16.5517 20.6276
rtibia 7.95139e-016
rfoot -7.34416 -15.5501
rtoes 23.0358
lfemur -7.23711 -9.00003 -15.0662
ltibia 17.8862
lfoot -7.17674 31.2637
ltoes 17.0174
